<svg width="274" height="72" viewBox="0 0 274 72" fill="none" xmlns="http://www.w3.org/2000/svg">
<path d="M73.9708 36.8229L65.0533 41.2432C64.7317 40.9182 64.3581 40.6481 63.9477 40.444L60.4884 38.7317L39.1809 28.1753C38.6017 27.888 37.9629 27.7384 37.3152 27.7384C36.6675 27.7384 36.0287 27.888 35.4495 28.1753L20.169 35.7483L9.74365 30.6211C10.0772 30.784 10.4446 30.8675 10.8164 30.865C11.1883 30.8625 11.5545 30.7741 11.8858 30.6067L35.4495 18.9292C36.0287 18.6418 36.6675 18.4922 37.3152 18.4922C37.9629 18.4922 38.6017 18.6418 39.1809 18.9292L66.248 32.343L67.1215 32.7758L72.3242 35.3538C72.997 35.6869 73.5661 36.1946 73.9708 36.8229Z" fill="#FF5D64"/>
<path d="M64.8483 58.3775L54.5031 63.5081L48.0255 60.2966L39.1805 55.9132C38.6013 55.6259 37.9625 55.4762 37.3148 55.4762C36.6671 55.4762 36.0283 55.6259 35.449 55.9132L14.6446 66.2223L9.30168 68.8702L0.381348 64.4272C0.616068 64.0624 0.946396 63.7677 1.33702 63.5745L6.41392 61.0582L8.38193 60.0829L35.449 46.6684C36.0283 46.3811 36.6671 46.2314 37.3148 46.2314C37.9625 46.2314 38.6013 46.3811 39.1805 46.6684L54.4243 54.2229L62.7476 58.346C63.0723 58.5094 63.4302 58.5972 63.7943 58.6027C64.1584 58.6081 64.5189 58.5311 64.8483 58.3775Z" fill="#FF5D64"/>
<path d="M74.2475 18.1937L65.3009 22.6278L39.1805 9.68314C38.6013 9.39578 37.9625 9.24616 37.3148 9.24616C36.6671 9.24616 36.0283 9.39578 35.449 9.68314L14.9632 19.8354L9.71905 22.4346C9.59591 22.4956 9.47824 22.5668 9.36733 22.6476L0.660522 18.3328C1.06526 17.7045 1.63436 17.1967 2.30721 16.8636L6.37039 14.8473L8.38194 13.8508L35.449 0.43698C36.0283 0.149617 36.6671 0 37.3148 0C37.9625 0 38.6013 0.149617 39.1805 0.43698L66.2476 13.8508L67.6421 14.5418L73.2925 17.3424C73.6829 17.535 74.013 17.8293 74.2475 18.1937Z" fill="#FF5D64"/>
<path d="M74.6295 23.3722V39.0523C74.6297 38.262 74.4011 37.4883 73.9709 36.823C73.5662 36.1946 72.9971 35.6869 72.3242 35.3538L67.1216 32.7759L66.2481 32.343L39.1803 18.9292C38.6011 18.6419 37.9623 18.4923 37.3146 18.4923V9.24609C37.9623 9.24616 38.6011 9.39577 39.1803 9.68306L65.3007 22.6277L66.2474 23.0969L71.1295 25.5159C71.4982 25.6986 71.9079 25.7849 72.3196 25.7665C72.7314 25.7481 73.1317 25.6257 73.4823 25.411C73.833 25.1962 74.1224 24.8961 74.3232 24.5393C74.524 24.1825 74.6294 23.7807 74.6295 23.3722Z" fill="#D9D9D9"/>
<path d="M66.2474 44.1444V56.2028C66.2492 56.6587 66.119 57.1055 65.8722 57.4903C65.6254 57.875 65.2723 58.1814 64.855 58.3732L64.8481 58.3766C64.5188 58.5305 64.1583 58.6077 63.7942 58.6025C63.4302 58.5973 63.0721 58.5097 62.7474 58.3465L54.4241 54.222L39.1803 46.6676C38.6011 46.3803 37.9623 46.2307 37.3146 46.2306V27.7383C37.9623 27.7384 38.6011 27.888 39.1803 28.1752L60.4823 38.7316L63.9415 40.4439C64.6342 40.7876 65.2168 41.3155 65.6241 41.9687C66.0313 42.6219 66.2472 43.3745 66.2474 44.1423V44.1444Z" fill="#D9D9D9"/>
<path d="M20.168 35.7481L11.6091 39.9897L8.38203 41.5889L6.03741 42.7533C3.26367 44.1258 1.93521e-07 42.1266 1.93521e-07 39.0527V20.5604C-0.000242779 19.7701 0.228315 18.9964 0.658539 18.3311L9.36534 22.6459C9.05988 22.8691 8.81171 23.1605 8.64089 23.4964C8.47006 23.8322 8.38139 24.2033 8.38203 24.5794V28.4655C8.38034 28.9156 8.50731 29.3569 8.74823 29.7383C8.98916 30.1198 9.33417 30.4258 9.74333 30.6209L20.168 35.7481Z" fill="#C9494F"/>
<path d="M9.30177 68.8718L3.49723 71.7483C3.12853 71.9304 2.71901 72.0162 2.3075 71.9974C1.89599 71.9787 1.49613 71.8561 1.14583 71.6412C0.795538 71.4263 0.506421 71.1264 0.305893 70.7697C0.105365 70.4131 7.2596e-05 70.0115 1.72073e-07 69.6032V65.7178C-0.000174223 65.2601 0.132217 64.812 0.381441 64.4268L9.30177 68.8718Z" fill="#C9494F"/>
<path d="M74.6299 19.4867V23.3729C74.6298 23.7814 74.5244 24.1832 74.3236 24.54C74.1228 24.8968 73.8334 25.1969 73.4827 25.4117C73.1321 25.6264 72.7318 25.7488 72.3201 25.7672C71.9083 25.7856 71.4986 25.6993 71.1299 25.5166L66.2478 23.0975L65.3011 22.6284L74.2477 18.1943C74.4975 18.5799 74.6301 19.0285 74.6299 19.4867Z" fill="#C9494F"/>
<path d="M74.63 39.0525V66.791C74.63 69.8648 71.3664 71.864 68.5926 70.4894L66.248 69.3251L54.5007 63.5035L64.8459 58.3729L64.8529 58.3694C65.2702 58.1777 65.6232 57.8712 65.87 57.4865C66.1168 57.1018 66.2471 56.6549 66.2452 56.199V44.1447C66.2454 43.06 65.8153 42.0187 65.0477 41.2455L73.9653 36.8252C74.3973 37.4893 74.628 38.2623 74.63 39.0525Z" fill="#C9494F"/>
<path d="M94.4627 45.4839C96.4969 50.6156 101.212 53.4356 106.575 53.4356C112.585 53.4356 117.994 49.691 117.994 43.2186C117.994 38.8729 115.498 35.9142 110.32 33.9725L106.113 32.3544C104.125 31.6147 102.969 30.6901 102.969 29.1645C102.969 27.4539 104.449 26.2982 106.575 26.2982C108.979 26.2982 110.69 28.0087 111.661 30.1815L117.439 26.8529C115.451 22.5072 111.244 19.8721 106.436 19.8721C100.334 19.8721 95.8496 23.7092 95.8496 29.5805C95.8496 34.2499 98.8546 37.1162 103.57 38.8267L107.454 40.2136C109.765 41.0458 110.828 42.1091 110.828 43.6809C110.828 45.7613 108.933 46.9171 106.668 46.9171C103.848 46.9171 101.536 45.0679 100.426 42.294L94.4627 45.4839Z" fill="#FF5D64"/>
<path d="M123.419 23.2932V29.9966H120.183V35.5443H123.419V45.3453C123.419 50.4306 126.378 53.3894 131.186 53.3894C133.358 53.3894 134.884 52.9733 135.901 52.4648V46.6397C135.161 47.102 134.237 47.3332 133.405 47.3332C131.186 47.3332 130.122 46.3623 130.122 43.9121V35.5443H135.901V29.9966H130.122V23.2932H123.419Z" fill="#FF5D64"/>
<path d="M156.658 29.9966V32.9554C155.086 30.5976 152.266 29.4419 149.261 29.4419C143.112 29.4419 138.443 34.6659 138.443 41.4156C138.443 48.2116 143.112 53.3894 149.261 53.3894C152.266 53.3894 155.086 52.095 156.658 49.7834V52.8346H163.269V29.9966H156.658ZM145.146 41.4156C145.146 38.1332 147.735 35.4981 151.017 35.4981C154.3 35.4981 156.889 38.1332 156.889 41.4156C156.889 44.698 154.3 47.3332 151.017 47.3332C147.735 47.3332 145.146 44.698 145.146 41.4156Z" fill="#FF5D64"/>
<path d="M167.879 41.4156C167.879 48.5814 172.964 53.4356 179.991 53.4356C181.979 53.4356 184.013 52.9733 185.862 51.9563V45.5764C184.429 46.5935 182.673 47.3332 180.87 47.3332C177.31 47.3332 174.675 44.8367 174.675 41.4156C174.675 37.9483 177.356 35.4981 180.87 35.4981C182.626 35.4981 184.244 36.0529 185.816 37.1624V30.8288C184.152 29.8579 182.072 29.3956 180.084 29.3956C172.918 29.3956 167.879 34.5272 167.879 41.4156Z" fill="#FF5D64"/>
<path d="M204.859 29.9966L197.278 38.1332V20.4731H190.574V52.8346H197.278V44.8829L198.433 43.7272L205.414 52.8346H213.505L203.472 40.1212L212.904 29.9966H204.859Z" fill="#FF5D64"/>
<path d="M229.706 53.4356C237.797 53.4356 242.697 48.1653 242.697 39.9825V20.4731H235.67V39.6126C235.67 43.9583 233.543 46.6859 229.706 46.6859C225.869 46.6859 223.742 43.9583 223.742 39.6126V20.4731H216.715V39.9825C216.715 48.1653 221.616 53.4356 229.706 53.4356Z" fill="#FF5D64"/>
<path d="M255.382 62.4507V49.8759C257 52.2799 259.774 53.3894 262.779 53.3894C268.928 53.3894 273.597 48.1653 273.597 41.4156C273.597 34.6197 268.928 29.4419 262.779 29.4419C259.774 29.4419 257 30.6901 255.382 33.0479V29.9966H248.679V62.4507H255.382ZM266.894 41.4156C266.894 44.698 264.305 47.3332 261.022 47.3332C257.74 47.3332 255.151 44.698 255.151 41.4156C255.151 38.1332 257.74 35.4981 261.022 35.4981C264.305 35.4981 266.894 38.1332 266.894 41.4156Z" fill="#FF5D64"/>
</svg>
